<svg xmlns="http://www.w3.org/2000/svg" viewBox="0 0 512 512"><title>Camera</title><g id="Camera"><g id="Camera-2" data-name="Camera"><path d="M256.3956,200.3566a56.0349,56.0349,0,1,0,56.0393,56.0394A56.0435,56.0435,0,0,0,256.3956,200.3566Zm0,88.8219A32.783,32.783,0,1,1,289.187,256.396,32.809,32.809,0,0,1,256.3956,289.1785Z"/><path d="M256,73.82A182.182,182.182,0,0,0,73.8207,256c0,100.6083,81.5706,182.18,182.1789,182.18s182.18-81.5715,182.18-182.18A182.1822,182.1822,0,0,0,256,73.82ZM363.437,288.8887a42.3986,42.3986,0,0,1-42.4152,42.399H190.9782a42.3955,42.3955,0,0,1-42.3981-42.399V223.8673a42.4,42.4,0,0,1,42.3981-42.3981h20.0925l5.2551-17.2971a14.1264,14.1264,0,0,1,13.518-10.0368H286.56a14.1443,14.1443,0,0,1,13.5261,10.0368l5.256,17.2971h15.68a42.4093,42.4093,0,0,1,42.4152,42.3981v65.0214Z"/></g></g></svg>